# xmcd
#
# Track frame offsets: 
#        150
#        12707
#        24689
#        38157
#        50560
#        64736
#        78822
#        93483
#        105373
#        117188
#        130903
#        143849
#        155559
#        170022
#        183770
#        196738
#        208795
#        223357
#        237669
#        250154
#        265404
#        276963
#        288170
#        301102
#        314273
#        328692
#
# Disc length: 4539 seconds
#
# Revision: 9
# Processed by: cddbd v1.5.2PL0 Copyright (c) Steve Scherf et al.
# Submitted via: ExactAudioCopy v0.90b4
#
DISCID=8011b91a
DTITLE=Various Artist - Atlantic Rhythm And Blues 1947-1974, Vol. 1 (1947-195
DTITLE=2)
DYEAR=1991
DGENRE=R&B
TTITLE0=Joe Morris - Lowe Groovin'
TTITLE1=Tiny Grimes - That Old Black Magic
TTITLE2=Tiny Grimes - Annie Laurie
TTITLE3=Tiny Grimes - Midnight Special
TTITLE4=Joe Morris - The Applejack
TTITLE5=Frank Culley - Cole Slaw
TTITLE6=Stick McGhee - Drinkin' Wine Spo-Dee-O-Dee
TTITLE7=Ruth Brown - So Long
TTITLE8=Ruth Brown - I'll Get Along Somehow
TTITLE9=Professor Longhair - Hey Little Girl
TTITLE10=Professor Longhair - Mardi Gras In New Orleans
TTITLE11=Harry Van Walls - Tee Nah Nah
TTITLE12=Al Hibbler - Danny Boy
TTITLE13=Joe Morris - Anytime Anyplace Anywhere
TTITLE14=Ruth Brown - Teardrops From My Eyes
TTITLE15=Stick McGhee - One Monkey Don't Stop No Show
TTITLE16=The Clovers - Don't You Know I Love You
TTITLE17=The Cardinals - Shouldn't I Know
TTITLE18=Joe Turner - The Chill Is On
TTITLE19=Joe Turner - Chains Of Love
TTITLE20=The Clovers - Fool, Fool, Fool
TTITLE21=The Clovers - One Mint Julep
TTITLE22=The Cardinals - Wheel Of Fortune
TTITLE23=Joe Turner - Sweet Sixteen
TTITLE24=Ruth Brown - 5-10-15 Hours
TTITLE25=Willis Jackson - Gator's Groove
EXTD=Atlantic 82305-2 ID3G: 14
EXTT0=
EXTT1=
EXTT2=
EXTT3=
EXTT4=
EXTT5=
EXTT6=
EXTT7=
EXTT8=
EXTT9=
EXTT10=
EXTT11=
EXTT12=
EXTT13=
EXTT14=
EXTT15=
EXTT16=
EXTT17=
EXTT18=
EXTT19=
EXTT20=
EXTT21=
EXTT22=
EXTT23=
EXTT24=
EXTT25=
PLAYORDER=
